<svg width="60" height="60" viewBox="0 0 60 60" fill="none" xmlns="http://www.w3.org/2000/svg">
<g clip-path="url(#clip0_101559_3978)">
<path d="M54.1895 49.182C53.9997 48.837 53.7935 48.4848 53.5252 48.2037C52.6509 47.2874 52.2238 46.1868 51.9829 44.9658C51.7255 43.6498 51.2637 42.4306 49.8109 41.8593C51.0082 37.9114 50.2727 34.3047 48.5989 30.7894C47.1187 27.6792 44.9394 25.0619 42.8094 22.4081C40.809 19.9148 39.8325 17.1569 39.9347 13.8989C40.0095 11.5189 39.8069 9.08952 39.378 6.74413C38.7666 3.40218 36.9413 0.86697 33.384 0.20077C31.9202 -0.0748362 30.3505 -0.0365069 28.8593 0.133237C25.2454 0.542083 22.7577 2.76518 22.1681 6.34624C21.8049 8.54014 21.7465 10.8308 21.9016 13.0539C22.1992 17.3139 21.2939 21.0957 18.5122 24.434C17.1379 26.084 15.9351 27.9019 14.8326 29.7509C12.8486 33.0782 11.3848 36.5936 11.7133 40.6054C11.7261 40.7769 11.7207 41.0069 11.6221 41.1219C10.5324 42.3922 9.71657 43.8816 7.87677 44.4164C5.69565 45.0497 5.04587 46.3621 5.42917 48.6217C5.64271 49.892 5.66462 51.1094 5.26855 52.3871C4.52204 54.7854 5.32513 55.99 7.79828 56.5084C8.09397 56.5704 8.39513 56.6179 8.69628 56.6526C11.1183 56.9172 13.4929 57.2932 15.7124 58.4394C16.6323 58.914 17.7274 59.1367 18.7678 59.2681C20.8741 59.5327 22.7723 59.1111 24.0225 57.1545C24.1101 57.0176 24.2708 56.8497 24.4131 56.8351C26.8206 56.5777 29.228 56.2565 31.6464 56.1415C32.9661 56.0776 34.3003 56.4116 35.6327 56.4901C36.162 56.5211 36.412 56.6708 36.6384 57.1691C37.5619 59.2152 39.3524 60.2026 41.5756 59.9653C43.6545 59.7408 45.299 58.6731 46.6387 57.1581C47.794 55.8513 49.1648 54.8985 50.7071 54.1393C51.6051 53.6957 52.514 53.2559 53.35 52.7119C54.7572 51.8012 55.0018 50.6549 54.1895 49.182ZM29.4452 11.2524C29.5456 10.7541 29.719 10.2504 29.9599 9.805C31.0897 7.71514 33.5538 7.67499 34.7767 9.70462C35.7513 11.3236 35.6254 13.397 34.4134 14.8681C33.9316 14.6692 33.4899 14.4867 33.1869 14.3607C33.2617 13.4791 33.4224 12.7071 33.3658 11.9496C33.3165 11.2743 32.9788 10.5844 32.163 10.5807C31.4019 10.5752 31.1116 11.2305 30.9346 11.8584C30.8214 12.2581 30.8251 12.6907 30.7776 13.1105C29.3448 12.8239 29.1733 12.6103 29.4452 11.2524ZM23.8729 9.28665C24.5226 8.66973 25.3203 8.60584 26.0047 9.17348C27.0232 10.0204 27.3663 11.1812 27.2167 12.4333C27.1765 12.7582 26.5851 13.0155 26.1033 13.4262C25.981 12.6888 25.9609 11.5006 25.0191 11.256C24.3164 11.0735 24.185 12.1796 24.1759 12.6286C24.1704 12.8914 24.6559 14.4538 24.5226 14.5597C24.5044 14.5743 24.3036 14.7385 24.1101 14.8973C22.6281 13.6544 22.5204 10.5716 23.8729 9.28665ZM23.9349 15.527C24.5153 15.0908 25.0757 14.6254 25.6287 14.1545C26.4391 13.4682 27.3262 12.9918 28.4523 12.9097C29.0857 13.0977 29.7391 13.2346 30.3451 13.4883C31.599 14.0121 32.8273 14.6016 34.0667 15.1602C35.6856 15.8921 35.8955 17.1332 34.5887 18.3506C34.3021 18.6171 33.9736 18.8507 33.6304 19.0369C32.5663 19.61 31.4876 20.1594 30.4089 20.7051C28.6969 21.5721 27.2568 21.3713 25.7966 20.1265C25.198 19.6173 24.5299 19.192 23.913 18.7029C22.4784 17.5731 22.4967 16.6075 23.9349 15.527ZM23.3618 56.8314C22.5624 58.2496 21.1643 58.5344 19.1492 58.653C18.3662 58.4358 16.9973 58.266 15.831 57.6856C13.6262 56.5905 11.3027 56.1689 8.90618 55.9389C8.66343 55.917 8.42433 55.8787 8.18523 55.833C5.85261 55.384 5.3014 54.5901 6.04974 52.3542C6.50969 50.9762 6.33082 49.6639 6.141 48.3132C5.89277 46.5428 6.3582 45.6539 8.05929 45.1118C9.52675 44.6427 10.5762 43.7703 11.4596 42.5364C12.9563 40.4484 14.6592 40.3845 16.28 42.3831C17.0758 43.3632 17.6325 44.5332 18.3151 45.6082C19.319 47.1907 20.3228 48.7732 21.3559 50.3374C21.8907 51.1459 22.5113 51.8997 23.0479 52.7083C23.9149 54.0151 24.1613 55.4114 23.3618 56.8314ZM36.8026 51.4982C33.1705 53.8746 29.3503 54.7817 25.145 53.0387C23.652 52.4181 22.9165 51.1678 22.0696 49.9723C22.1426 49.8938 22.1754 49.8245 22.2229 49.8117C23.9769 49.3463 24.4934 48.3552 23.5115 46.7965C22.7814 45.6374 21.7556 44.6445 20.7682 43.6717C20.1714 43.0822 19.4102 42.6514 18.6984 42.1878C15.8219 40.306 14.8892 38.2016 15.5061 34.8103C15.9916 32.1364 17.3021 29.8257 18.6966 27.557C18.7714 27.5916 18.8444 27.6245 18.9174 27.6592C18.5615 28.3746 18.2147 29.0956 17.8479 29.8056C16.7673 31.8882 15.9752 34.0547 16.2983 36.4421C16.4242 37.3839 16.8312 38.2873 17.1105 39.2091C17.1981 39.1817 17.2875 39.1543 17.3751 39.1251C17.5723 37.9698 17.6453 36.7761 17.9939 35.6682C18.5652 33.8503 19.2496 32.0597 20.0089 30.3112C21.3377 27.2467 22.7978 24.2369 23.4421 20.926C23.5498 20.3656 23.6246 19.7998 23.7451 19.0515C24.4131 19.5553 24.9808 19.9422 25.501 20.3857C27.1345 21.782 28.6732 22.0339 30.5385 21.0683C32.194 20.2123 33.8075 19.2778 35.4027 18.3962C36.1018 20.3437 36.7661 22.461 37.6185 24.4979C38.6607 26.9893 39.9055 29.3931 40.9732 31.8736C41.5244 33.1512 41.9187 34.5 42.3166 35.8361C42.6214 36.8619 42.5758 36.8746 43.8425 37.0243C44.9832 32.8044 43.2675 29.5282 40.6976 26.4399C40.829 26.5075 40.9897 26.5476 41.0864 26.6498C43.7987 29.5227 45.5673 32.7752 45.0982 36.8892C45.0434 37.3802 45.215 37.5682 45.6129 37.7854C46.3558 38.1888 47.1297 38.594 47.7484 39.1561C48.1883 39.554 48.4511 40.1874 48.6774 40.7623C48.7669 40.9941 48.546 41.3482 48.3836 41.6183C47.617 39.5577 45.2223 37.9022 42.97 37.915C41.9515 37.9205 41.3693 38.3768 41.0481 39.3879C40.9696 39.6362 40.8893 39.9866 40.7031 40.0797C38.772 41.0525 38.4271 42.8613 38.1606 44.734C37.8813 46.7125 37.5893 48.6892 37.2662 50.6604C37.217 50.9616 37.0417 51.3412 36.8026 51.4982ZM46.1331 41.5599C45.4979 42.4342 44.6163 43.0256 43.5449 43.0475C43.0576 43.0566 42.3038 42.7171 42.1213 42.3265C41.7453 41.5161 41.5427 40.5689 41.5117 39.669C41.4204 37.0444 47.5768 39.5723 46.1331 41.5599ZM52.8791 52.1461C52.1636 52.5988 51.397 52.9784 50.6304 53.3398C48.9074 54.1539 47.3651 55.1833 46.1075 56.6489C45.1037 57.8189 43.8479 58.6658 42.333 59.0856C39.1535 59.9653 36.6128 57.7422 37.0983 54.486C37.1878 53.8855 37.2881 53.2759 37.4853 52.7083C38.3687 50.1585 38.7209 47.5247 38.8998 44.8471C38.9546 44.044 39.1572 43.2172 39.4656 42.4725C39.7138 41.8702 40.2231 41.3774 40.7031 40.7149C41.0554 41.6822 41.2215 42.3703 41.5427 42.9781C42.1614 44.1517 43.189 44.6336 44.4411 44.2211C45.3446 43.9254 46.2371 43.4691 47.0037 42.9051C48.3014 41.9524 50.1376 42.3064 50.8239 43.7666C50.8512 43.8214 50.8914 43.8725 50.9042 43.9309C51.3222 46.0116 52.1818 47.8587 53.4978 49.5562C54.3173 50.613 54.0289 51.4197 52.8791 52.1461Z" fill="black"/>
<path d="M34.1669 16.801C32.0387 17.8067 30.219 19.5936 27.6089 19.3782C25.8585 19.234 24.621 18.1736 23.5405 16.9252C23.5953 16.8467 23.65 16.7664 23.7066 16.6879C23.9804 16.927 24.2578 17.1624 24.5298 17.4052C26.6123 19.2742 28.2477 19.5042 30.7537 18.2393C31.5112 17.8578 32.2267 17.3961 32.9732 16.9945C33.32 16.8065 33.6978 16.6769 34.061 16.5218C34.0957 16.6149 34.1322 16.708 34.1669 16.801Z" fill="black"/>
</g>
<defs>
<clipPath id="clip0_101559_3978">
<rect width="49.6511" height="60" fill="white" transform="translate(5)"/>
</clipPath>
</defs>
</svg>
