<svg width="60" height="60" viewBox="0 0 60 60" fill="none" xmlns="http://www.w3.org/2000/svg">
<mask id="mask0_101559_3967" style="mask-type:luminance" maskUnits="userSpaceOnUse" x="0" y="0" width="60" height="60">
<path d="M60 0H0V60H60V0Z" fill="white"/>
</mask>
<g mask="url(#mask0_101559_3967)">
<path fill-rule="evenodd" clip-rule="evenodd" d="M6.52144 15.6517H29.9995V13.0429H15.6517V6.52144C15.6517 6.52144 15.6517 0 29.9995 0C44.3473 0 44.3473 6.52144 44.3473 6.52144C44.3473 6.52144 44.4552 18.1356 44.4012 22.1107C44.3473 26.0868 41.7385 28.6945 37.8174 28.6945H22.1742C16.9566 28.6945 13.0439 32.6072 13.0439 37.8248V44.3462H6.5225C6.5225 44.3462 0 44.3473 0 29.9995C0 15.6517 6.52144 15.6517 6.52144 15.6517ZM24.7819 6.5225C24.7819 7.96289 23.6135 9.13129 22.1731 9.13129C20.7327 9.13129 19.5643 7.96289 19.5643 6.5225C19.5643 5.08211 20.7327 3.91371 22.1731 3.91371C23.6135 3.91371 24.7819 5.08211 24.7819 6.5225Z" fill="black"/>
<path fill-rule="evenodd" clip-rule="evenodd" d="M53.4796 44.3473H30.0016V46.956H44.3494V53.4775C44.3494 53.4775 44.3494 59.9989 30.0016 59.9989C15.6538 59.9989 15.6538 53.4775 15.6538 53.4775V37.8258C15.6538 33.9121 18.2626 31.3044 22.1752 31.3044H37.828C43.0455 31.3044 46.9582 27.3917 46.9582 22.1742V15.6527H53.4796C53.4796 15.6527 60.0011 15.6527 60.0011 30.0005C60.0011 44.3483 53.4796 44.3483 53.4796 44.3483V44.3473ZM40.4346 53.4785C40.4346 54.9189 39.2662 56.0873 37.8259 56.0873C36.3855 56.0873 35.2171 54.9189 35.2171 53.4785C35.2171 52.0382 36.3855 50.8698 37.8259 50.8698C39.2662 50.8698 40.4346 52.0382 40.4346 53.4785Z" fill="black"/>
</g>
</svg>
