<svg width="60" height="60" viewBox="0 0 60 60" fill="none" xmlns="http://www.w3.org/2000/svg">
<path d="M33.9459 21.0798V23.212H25.4965V21.0798C25.4965 18.7495 27.3925 16.8546 29.7217 16.8546C32.0509 16.8546 33.9459 18.7495 33.9459 21.0798ZM52.4424 10.1892L52.3891 29.0394C52.3891 29.0394 51.3235 38.8765 44.6254 46.8154C39.0865 53.3785 30.7797 57.471 29.7718 57.9521V57.9999C29.7718 57.9999 29.7544 57.9923 29.7217 57.976C29.688 57.9923 29.6706 57.9999 29.6706 57.9999V57.9521C28.6627 57.471 20.3559 53.3785 14.8181 46.8154C8.11889 38.8765 7.05442 29.0394 7.05442 29.0394L7 10.1892L29.6706 2.03586V1.99994L29.7217 2.01735L29.7718 1.99994V2.03586L52.4424 10.1892ZM39.5175 26.1714C39.5175 24.5377 38.1918 23.212 36.5581 23.212H35.6873V21.0798C35.6873 17.7896 33.0109 15.1132 29.7217 15.1132C26.4326 15.1132 23.7551 17.7896 23.7551 21.0798V23.212H22.8854C21.2506 23.212 19.926 24.5377 19.926 26.1714V37.5737C19.926 39.2074 21.2506 40.5331 22.8854 40.5331H36.5581C38.1918 40.5331 39.5175 39.2074 39.5175 37.5737V26.1714Z" fill="black"/>
</svg>
