<svg width="181" height="126" viewBox="0 0 181 126" fill="none" xmlns="http://www.w3.org/2000/svg">
<path d="M150.5 121.169H174.839V7.18605H150.5V7.62939e-06H180.5V126H150.5V121.169Z" fill="black"/>
<path d="M125.172 73L163.28 105.5H154.28L112.28 71.296L160.28 34L170.78 32L152.172 50.5L125.172 73Z" fill="black"/>
<path d="M115.78 101.5H105.78L106.55 50.957L115.78 21V30V101.5Z" fill="black"/>
<path d="M15.7804 105V19.2568H23.7804L68.7804 93L107.28 20.5H112L103.78 45L74.2804 100H61.7804L23.7804 34V105H15.7804Z" fill="black"/>
<path d="M33 121V126H-1.40667e-05V3.33786e-06H33V6.40243L5.56081 6.40244V121L33 121Z" fill="black"/>
</svg>
