<svg width="60" height="60" viewBox="0 0 60 60" fill="none" xmlns="http://www.w3.org/2000/svg">
<g clip-path="url(#clip0_101559_4002)">
<path d="M43.6302 10.5098L36.1273 18.0878C33.9431 16.8917 31.4499 16.3428 28.9393 16.5364C26.5298 16.7213 24.2359 17.5793 22.306 18.9863C20.5523 18.4692 18.7265 18.2034 16.9064 18.2034H16.8312C13.8613 18.2207 10.9867 18.9141 8.37207 20.2286C9.49303 17.6082 11.0849 15.2132 13.0697 13.1533C15.8518 10.2729 19.3129 8.15234 23.1294 6.99671C26.9458 5.84109 30.9934 5.68797 34.885 6.54891C38.0485 7.24806 41.0213 8.60014 43.6302 10.5098Z" fill="black"/>
<path d="M59.2407 42.7171C58.1602 46.2273 55.9905 49.2897 53.0523 51.4565C50.1141 53.6233 46.5635 54.7789 42.9261 54.75H32.1875V44.2194H42.9261C43.7813 44.2194 44.6278 44.0489 45.4194 43.7167C46.2081 43.3873 46.9275 42.902 47.5313 42.2924C48.1351 41.6828 48.6176 40.9576 48.944 40.1574C49.2705 39.36 49.441 38.5048 49.441 37.641C49.441 36.7772 49.2705 35.922 48.944 35.1246C48.6176 34.3272 48.1351 33.6021 47.5313 32.9896C46.9275 32.38 46.2081 31.8947 45.4194 31.5653C44.6278 31.2331 43.7813 31.0626 42.9261 31.0626V29.751C42.9608 27.7633 42.5506 25.793 41.7243 23.9873C41.3603 23.1899 40.9182 22.4359 40.4069 21.7338C39.7886 20.8816 39.0635 20.1044 38.2545 19.4226C38.2199 19.3937 38.1823 19.3619 38.1476 19.333L45.3645 12.0468L45.4685 11.9428C46.1792 12.5784 46.8466 13.2544 47.4706 13.968C49.857 16.6895 51.5991 19.9368 52.5496 23.4702C55.5658 25.5272 57.8424 28.5116 59.0471 31.9784C60.2518 35.4453 60.3183 39.2098 59.2407 42.7171Z" fill="black"/>
<path d="M30.352 27.2202L22.7942 34.8502C22.358 33.8823 21.6993 33.0329 20.8672 32.3771C20.0381 31.7213 19.0616 31.2793 18.0273 31.0886C16.9901 30.8979 15.9212 30.9644 14.9158 31.2822C13.9104 31.5971 12.9946 32.1576 12.2492 32.9087C11.5038 33.6599 10.952 34.5844 10.6371 35.6013C10.3222 36.6154 10.2586 37.693 10.4464 38.7417C10.6371 39.7876 11.0733 40.7727 11.7234 41.6106C11.784 41.6857 11.8447 41.7637 11.9083 41.8359C12.5294 42.5697 13.3008 43.1562 14.1733 43.5549H14.1704L6.63284 51.1676L6.61551 51.1849C5.92502 50.6475 5.27787 50.0582 4.68273 49.4255C2.86551 47.5014 1.50765 45.167 0.73338 42.5986C-0.292236 39.1895 -0.240233 35.5406 0.8865 32.1633C1.57121 30.1092 2.63438 28.2169 4.00957 26.5788C4.88785 25.5243 5.89902 24.5796 7.01998 23.7591C7.21354 23.6175 7.41 23.4788 7.60934 23.3459H7.61223C10.3482 21.52 13.555 20.5349 16.8457 20.5146C17.958 20.5118 19.0645 20.6187 20.1508 20.8324H20.1536C21.0464 21.0087 21.9246 21.2571 22.7798 21.5778C23.3229 21.7801 23.8574 22.0112 24.3774 22.2683C26.7205 23.4326 28.7659 25.1285 30.352 27.2202Z" fill="black"/>
<path d="M29.8759 44.1443V54.6749H16.8462C13.9283 54.6894 11.0739 53.9382 8.55176 52.5139L16.8434 44.1443H29.8759Z" fill="black"/>
</g>
<defs>
<clipPath id="clip0_101559_4002">
<rect width="60" height="48.75" fill="white" transform="translate(0 6)"/>
</clipPath>
</defs>
</svg>
