<svg width="60" height="60" viewBox="0 0 60 60" fill="none" xmlns="http://www.w3.org/2000/svg">
<g clip-path="url(#clip0_105805_1701)">
<path d="M52.8802 19.5994C52.9321 17.245 51.4162 14.8279 49.7064 12.86C49.5861 12.7227 49.4641 12.5871 49.3438 12.4532C48.8658 11.9278 48.3794 11.4396 47.9165 11.0023C46.3855 9.55305 45.097 8.63266 45.097 8.63266C36.4446 2.12212 28.3003 2.17467 23.2864 3.19167C23.1426 3.22218 23.0006 3.251 22.8619 3.28151C22.6529 3.32897 22.4507 3.37643 22.2552 3.42389C22.19 3.44084 22.1248 3.45779 22.0613 3.47305C21.9961 3.49 21.9326 3.50695 21.8708 3.5239C21.3075 3.67306 20.7995 3.829 20.3566 3.97985C20.2646 4.01206 20.1761 4.04257 20.0892 4.07308C20.0357 4.09173 19.9839 4.11037 19.9321 4.12902C19.8535 4.15783 19.7783 4.18665 19.7048 4.21377C19.6646 4.22902 19.6245 4.24428 19.5861 4.25953C19.5744 4.26292 19.5644 4.26631 19.5527 4.2714C19.4892 4.29513 19.429 4.31886 19.3705 4.34259C19.317 4.36293 19.2652 4.38327 19.2167 4.40361C19.1816 4.41886 19.1482 4.43242 19.1148 4.44598C19.063 4.46802 19.0145 4.48836 18.9677 4.5087C18.849 4.55785 18.7454 4.60531 18.6535 4.64599C18.468 4.73074 18.3376 4.79516 18.2658 4.83075C18.249 4.83923 18.234 4.8477 18.224 4.85279C18.224 4.85279 18.2206 4.85448 18.219 4.85618C18.2089 4.85957 18.2039 4.86296 18.2006 4.86465C18.1989 4.86635 18.1972 4.86635 18.1972 4.86635C7.14821 9.83273 3.88414 20.7028 3.88414 20.7028C3.36269 22.4063 2.88971 24.0861 2.58219 25.837C2.5521 26.0184 2.52369 26.1998 2.49695 26.3811C1.89695 30.4152 2.26798 34.3222 3.44626 38.0377C3.67522 38.7683 3.93762 39.4903 4.2301 40.2039C4.18999 40.031 4.14319 39.8259 4.14319 39.8259C4.14319 39.8259 3.15043 34.9782 4.073 30.3237C4.073 30.3237 4.8769 25.4777 8.14263 21.7334C8.14263 21.7334 13.4407 14.0804 23.3064 17.0789C23.3064 17.0789 25.4357 17.8467 26.1694 18.2315C26.9031 18.5908 28.18 19.1434 28.18 19.1434C35.1593 22.5741 41.0741 23.6538 41.0741 23.6538C53.5905 25.7896 52.8802 19.5994 52.8802 19.5994ZM29.5989 10.1548L20.8931 7.40886C20.8463 7.40886 20.6106 7.29021 20.1844 7.40886C20.1844 7.40886 15.4295 8.63266 16.2568 11.2735C16.2568 11.2735 16.7532 12.9278 18.102 14.5364L27.6919 14.155L27.5749 14.4008C27.468 14.6228 27.2507 14.7686 27.0067 14.7805L18.1337 15.2127C18.1237 15.2144 18.112 15.2144 18.102 15.2144C17.9064 15.2144 17.7209 15.1262 17.5922 14.9754C16.1716 13.2804 15.6385 11.543 15.6167 11.4701C15.3978 10.7735 15.468 10.0599 15.819 9.41914C16.8017 7.62582 19.6931 6.83595 20.019 6.75289C20.1894 6.70374 20.3716 6.67831 20.5471 6.67831C20.771 6.67831 20.9315 6.72069 21.0134 6.74272C21.0401 6.74781 21.0669 6.75459 21.0919 6.76137L29.1593 9.30558C29.3465 9.3649 29.497 9.5022 29.5755 9.68357C29.639 9.83273 29.6474 10.0005 29.5989 10.1548ZM38.3298 13.5753C38.3215 14.277 37.7599 14.8449 37.063 14.8483H37.0529C36.3527 14.85 35.7844 14.2821 35.7744 13.5753V13.5516C35.7727 12.8397 36.3393 12.26 37.0429 12.2566H37.0529C37.7549 12.2532 38.3265 12.8278 38.3298 13.5414V13.5753Z" fill="black"/>
<path d="M2.43213 36.9445C1.86389 36.2648 1.33408 35.5529 0.879486 34.7867C0.523497 34.1392 0.145781 33.4426 0.0271184 32.7002C-0.0915445 31.956 0.192578 31.2357 0.618762 30.6356C0.926283 30.1797 1.30567 29.8203 1.49453 29.2678C1.52294 29.1915 1.54801 29.1152 1.56974 29.0372C1.45442 31.695 1.74188 34.3375 2.43213 36.9445Z" fill="black"/>
<path d="M3.45795 38.0496C3.45795 38.0496 3.4496 38.0428 3.44626 38.0377C2.26798 34.3222 1.89695 30.4152 2.49695 26.3811C1.90364 30.4118 2.28135 34.3307 3.45795 38.0496Z" fill="black"/>
<path d="M18.6543 4.64602C18.7462 4.60534 18.8498 4.55788 18.9685 4.50873C18.8515 4.55788 18.7462 4.60534 18.6543 4.64602Z" fill="black"/>
<path d="M27.0353 2.04075C21.7489 2.30009 18.2509 4.07476 17.9066 4.25613C12.0637 6.88679 8.39351 11.1531 6.34115 14.2703C4.11496 17.6535 3.27931 20.3909 3.24588 20.5011C2.75117 22.1165 2.24978 23.8657 1.92388 25.7218C1.82527 26.3014 1.74672 26.8794 1.68822 27.4574C1.44421 24.9692 -0.634899 22.4182 0.737246 19.9587C1.21023 19.1434 1.84867 18.3756 2.60577 17.7993C4.4041 16.3839 5.208 15.6636 5.32666 13.121C5.37346 12.2566 5.35006 11.3684 5.44532 10.5056C5.54059 9.40049 5.89491 8.44111 6.77067 7.72243C7.57457 7.07324 8.5924 6.7139 9.58516 6.54609C10.5545 6.37828 11.5021 6.44948 12.4481 6.09013C13.5361 5.68164 14.4821 4.96295 15.2626 4.0985C15.9495 3.33066 16.5645 2.49162 17.2982 1.72378C19.735 -0.844157 23.7562 -0.244123 26.4537 1.57971C26.6275 1.69666 26.8364 1.86786 27.0353 2.04075Z" fill="black"/>
<path d="M1.688 27.4575C1.63117 27.9846 1.59273 28.5118 1.56934 29.0372C1.69636 28.605 1.72644 28.1575 1.70638 27.7083C1.70304 27.6253 1.69636 27.5405 1.688 27.4575Z" fill="black"/>
<path d="M59.3385 41.865C59.3385 41.865 57.47 49.3519 48.1725 55.8302C48.1725 55.8302 38.0711 63.3154 23.2833 58.2287C23.2833 58.2287 13.2989 55.0132 7.14851 45.7042C6.8577 45.2635 6.57859 44.8178 6.31118 44.3686C6.21759 44.0058 6.07219 43.6567 5.92344 43.3143C4.23041 39.4157 3.90617 34.6087 4.72846 30.4576C4.73013 30.4508 4.7318 30.4441 4.7318 30.4356C4.74015 30.3898 5.54071 25.7404 8.64433 22.1826C8.65937 22.1639 8.67609 22.1436 8.68946 22.1232C8.72456 22.0741 12.2961 17.0603 18.8293 17.0603C20.2098 17.0603 21.6454 17.284 23.0995 17.723C23.6928 17.9383 25.2989 18.5383 25.8622 18.8332C25.8688 18.8366 25.8739 18.84 25.8789 18.8417C26.2683 19.0332 26.7981 19.2722 27.2209 19.4604C24.8828 20.1672 19.2053 22.4572 17.0142 28.4287C14.2232 36.0342 18.0789 42.7041 18.0789 42.7041C18.0789 42.7041 20.7045 47.9111 26.4304 50.3113C26.4304 50.3113 21.8644 46.1839 21.9831 41.7447L22.0064 41.7684C22.1719 42.0091 23.0243 42.921 23.0243 42.921C23.9702 43.9533 24.9864 44.9127 26.051 45.8009C31.7067 50.574 38.5909 53.047 45.9246 51.2944C45.9246 51.2944 40.3173 51.6537 36.5803 47.4077C36.5803 47.4077 45.4683 47.84 53.6761 38.8496C53.4538 39.0513 49.319 42.7227 43.7485 41.6735C43.7485 41.6735 48.8828 38.914 52.5028 31.1882C52.5028 31.1882 56.8081 22.6453 53.5675 15.6398C53.5675 15.6398 61.4928 23.0775 53.5207 35.385C53.6109 35.324 56.5273 33.3069 59.7179 26.2692C59.7179 26.2692 61.4443 33.6832 56.3585 40.7141C56.3585 40.7141 54.0404 44.8652 48.5986 47.2637C48.5986 47.2637 51.8393 47.8162 59.3385 41.865Z" fill="black"/>
</g>
<defs>
<clipPath id="clip0_105805_1701">
<rect width="60" height="60" fill="white"/>
</clipPath>
</defs>
</svg>
