<svg width="100" height="104" viewBox="0 0 100 104" fill="none" xmlns="http://www.w3.org/2000/svg">
<path d="M40.8893 68.6146C35.8253 67.1931 31.3717 64.5758 27.4832 60.9206C26.2624 61.3493 25.019 61.778 23.753 62.1841C23.1652 62.3646 22.5775 62.2969 21.9671 62.0713C20.8819 61.6652 20.2263 60.8755 19.7515 59.9052C19.0959 58.6191 18.2595 57.4458 17.6039 56.1597C17.0161 54.9639 16.157 53.926 15.6596 52.685C15.411 52.0758 14.7554 51.6697 14.7554 50.9025C14.1676 49.9549 14.7327 49.12 15.0719 48.2852C15.1623 48.0596 15.2753 47.7662 15.4788 47.676C16.2926 47.315 16.6996 46.5027 17.3778 46.0063C17.6943 45.7807 18.0334 45.5325 18.3951 45.2617C17.8752 42.667 17.423 40.0722 17.423 37.4097C17.423 34.7699 17.8978 32.2202 18.3951 29.6931C17.5134 28.8809 16.6996 28.0912 15.8405 27.3466C14.9588 26.5794 14.4389 25.6318 14.5519 24.639C14.6197 24.0975 14.778 23.5108 15.0492 23.0596C15.8857 21.7283 16.6544 20.3294 17.4682 18.9756C18.1238 17.8926 18.689 16.7644 19.4124 15.704C19.7968 15.1625 20.0228 14.5307 20.4072 13.9666C21.1532 12.9061 22.6453 12.3872 23.8661 12.7482C24.9512 13.0641 25.9685 13.5379 27.0763 13.741C27.1893 13.7635 27.2798 13.9215 27.3928 14.0343C31.3038 10.4016 35.7575 7.80686 40.8667 6.29513C41.0702 5.68592 41.1154 5.03159 41.364 4.39982C41.5449 3.92599 41.4997 3.33935 41.5901 2.8204C41.8388 1.46661 42.6753 0.676895 43.8734 0.270758C44.303 0.135379 44.7325 0 45.2525 0C48.4175 0.0451264 51.5825 0.0451264 54.7475 0C55.6518 0 56.4204 0.361011 57.1439 0.767148C57.7995 1.1056 58.1612 1.82762 58.3421 2.50451C58.6586 3.74549 58.8394 5.00903 59.0881 6.31769C64.1747 7.76173 68.6283 10.3565 72.5168 14.0117C73.7376 13.583 74.981 13.1543 76.247 12.7482C76.8348 12.5677 77.4226 12.6354 78.0329 12.861C79.1181 13.2671 79.7737 14.0569 80.2485 15.0271C80.9041 16.3132 81.7405 17.4865 82.3961 18.7726C82.9839 19.9684 83.843 21.0063 84.3404 22.2473C84.589 22.8565 85.2446 23.2626 85.2446 24.0298C85.8324 24.9774 85.2673 25.8123 84.9281 26.6471C84.8377 26.8727 84.7247 27.1661 84.5212 27.2563C83.7074 27.6173 83.3004 28.4296 82.6222 28.926C82.3057 29.1516 81.9666 29.3998 81.6049 29.6706C82.1248 32.2653 82.577 34.8601 82.577 37.5226C82.577 40.1625 82.1701 42.7121 81.6049 45.2392C82.4866 46.0514 83.3004 46.8412 84.1595 47.5857C85.0412 48.3529 85.5611 49.3005 85.4481 50.2933C85.3803 50.8348 85.2447 51.4215 84.9508 51.8727C84.1369 53.1814 83.3682 54.5352 82.577 55.8664C81.5823 57.5135 80.7684 59.296 79.6155 60.8529C79.412 61.7103 78.5981 61.778 78.0103 62.0939C77.3773 62.4323 76.7443 62.3421 76.0435 62.139C75.0036 61.8457 74.0089 61.3267 72.9237 61.1913C72.8107 61.1688 72.7203 61.0108 72.6072 60.898C68.6962 64.5758 64.2652 67.1931 59.0881 68.6597C58.8394 69.8782 58.6133 71.1417 58.3421 72.3827C58.0708 73.6011 57.2569 74.3682 56.104 74.7292C55.6744 74.8646 55.2223 75 54.7249 75C51.5599 74.9549 48.3949 74.9549 45.2299 75C44.3256 75 43.5569 74.639 42.8335 74.2329C42.1779 73.8944 41.7936 73.1724 41.6579 72.4955C41.4093 71.1643 41.1606 69.9233 40.8893 68.6146ZM42.3588 48.7365C42.8109 48.4883 43.3309 48.3303 43.3535 47.7888C43.3987 46.9765 43.5117 46.1417 43.3309 45.3745C43.0144 44.0659 42.4492 42.8023 42.1101 41.4937C41.884 40.6588 41.3867 39.8691 41.4093 38.9666C40.6858 37.1841 40.2337 35.3114 39.6233 33.5063C39.1259 32.0171 38.7642 30.4829 38.2216 29.0162C37.9277 28.204 37.8599 27.3014 37.3174 26.5794C37.2721 26.5117 37.2495 26.4666 37.2495 26.4666C36.6391 26.0605 36.0061 26.1958 35.4636 26.1958C35.1471 26.4892 34.8758 26.7374 34.6271 26.963C34.6045 27.685 34.0845 28.2491 34.175 28.9486C33.3837 30.7085 33.0446 32.6038 32.389 34.4088C32.0499 35.3339 31.8464 36.2816 31.5751 37.2292C31.3264 38.1769 30.7839 39.0343 30.7839 40.0496C29.9248 41.9675 29.4953 44.0208 28.8623 46.0289C28.704 46.5253 28.6136 46.9991 28.9301 47.4729C29.0205 47.6083 28.9753 47.8114 28.9753 47.7888C29.337 48.1724 29.6083 48.4431 29.8344 48.7139C30.2639 48.7139 30.716 48.7139 31.1908 48.7139C31.5073 48.3078 31.8238 47.9242 32.1177 47.5406C32.0499 46.2545 32.3212 45.3971 32.9089 44.0208C35.1245 44.0208 37.34 44.0208 39.5555 44.0208C39.7363 44.7428 39.8268 45.4422 40.0754 46.0966C40.1885 46.3673 40.3015 46.6381 40.2563 46.9088C40.1885 47.7437 40.4598 48.398 41.4093 48.7139C41.6353 48.7365 41.9744 48.7365 42.3588 48.7365ZM47.6488 48.7365C48.2592 48.6913 48.9601 48.8718 49.4574 48.3755C49.6383 48.1498 49.7965 47.9242 50.0226 47.6083C50.0226 45.352 50.0226 42.9829 50.0226 40.6137C51.6729 40.6137 53.3007 40.546 54.9058 40.6363C55.8779 40.6814 56.6691 40.3881 57.4378 39.9143C57.7995 39.6886 58.116 39.3502 58.4325 39.0343C59.269 38.222 59.6759 37.2292 59.6985 36.056C59.6985 34.2058 59.6985 32.3782 59.6985 30.528C59.6985 30.2572 59.6307 29.9639 59.5629 29.6931C59.3142 28.7229 58.7942 28.0009 58.0934 27.3691C57.2795 26.6245 56.33 26.1733 55.1997 26.1733C52.6677 26.1733 50.1583 26.1733 47.6036 26.1733C47.355 26.444 47.1063 26.7148 46.8124 26.9856C46.8124 33.935 46.8124 40.9296 46.8124 47.9468C47.1063 48.1949 47.3776 48.4657 47.6488 48.7365ZM63.926 48.7365C65.4859 48.7365 67.0684 48.7365 68.6283 48.7365C68.8996 48.4657 69.1709 48.1949 69.4422 47.9468C69.4422 47.5181 69.4422 47.1119 69.4422 46.6832C69.4422 46.6381 69.4422 46.6155 69.4422 46.593C69.1031 45.9612 68.5831 45.5776 67.9049 45.5099C67.9049 40.1173 67.9049 34.7473 67.9049 29.4901C68.4023 29.2419 68.8318 29.0162 69.3292 28.7455C69.397 28.1588 69.4422 27.5496 69.4874 27.1209C69.1257 26.7148 68.877 26.4215 68.6736 26.1958C67.0458 26.1958 65.4633 26.1958 64.0617 26.1958C63.6774 26.5343 63.4061 26.7825 63.067 27.0984C63.1348 27.6399 63.2252 28.2491 63.293 28.7681C63.8356 29.0388 64.2652 29.2644 64.6495 29.4675C64.6495 34.8375 64.6495 40.2076 64.6495 45.5325C64.4234 45.5776 64.1747 45.5325 64.0843 45.6453C63.7678 45.9612 63.2252 46.0514 63.1122 46.5704C63.1122 47.0217 63.1122 47.4729 63.1122 47.9242C63.3835 48.1949 63.6548 48.4657 63.926 48.7365Z" fill="black"/>
<path d="M38.3575 40.5683C37.0237 40.6134 35.622 40.636 34.2204 40.6811C34.1751 40.6811 34.1073 40.7714 33.9717 40.8842C33.9943 39.4853 34.7855 38.3571 34.876 37.071C35.5542 35.9428 35.622 34.6116 36.0742 33.3481C36.2098 33.4835 36.4133 33.6188 36.4133 33.7317C36.4359 34.7019 37.001 35.5367 37.1819 36.4618C37.3175 37.0936 37.6793 37.7028 37.7697 38.3345C37.8601 39.1468 38.4027 39.756 38.3575 40.5683Z" fill="black"/>
<path d="M56.5558 36.1917C56.3975 36.4399 56.2619 36.6881 56.081 36.9138C55.7645 37.2748 55.3576 37.4778 54.8377 37.4553C53.2551 37.4327 51.6726 37.4553 50.0449 37.4553C50.0449 34.7703 50.0449 32.0852 50.0449 29.3325C51.6952 29.3325 53.3908 29.31 55.0637 29.3325C55.855 29.3551 56.5332 30.1674 56.5558 31.0248C56.5558 32.4463 56.5558 33.8677 56.5558 35.2892C56.5558 35.6051 56.5558 35.8984 56.5558 36.1917Z" fill="black"/>
<path d="M15.3983 99V87.8H20.4943C21.4276 87.8 22.1636 87.9627 22.7023 88.288C23.2463 88.608 23.633 89.032 23.8623 89.56C24.097 90.088 24.2143 90.656 24.2143 91.264C24.2143 91.6853 24.1316 92.112 23.9663 92.544C23.8063 92.976 23.561 93.3653 23.2303 93.712C22.8996 94.0587 22.4836 94.3147 21.9823 94.48L24.1903 99H21.8623L19.7423 94.76H17.4703V99H15.3983ZM17.4703 92.808H20.5263C20.9156 92.808 21.2223 92.736 21.4463 92.592C21.6756 92.4427 21.8383 92.2507 21.9343 92.016C22.0303 91.7813 22.0783 91.5333 22.0783 91.272C22.0783 91.0373 22.033 90.8027 21.9423 90.568C21.8516 90.3333 21.6943 90.1387 21.4703 89.984C21.2463 89.8293 20.9316 89.752 20.5263 89.752H17.4703V92.808ZM26.4296 99V87.8H33.9976V89.768H28.5016V92.232H31.7576V94.2H28.5016V97.016H34.3336V99H26.4296ZM39.9057 99.192C39.207 99.192 38.5724 99.0693 38.0017 98.824C37.431 98.5787 36.9404 98.232 36.5297 97.784C36.1244 97.3307 35.8204 96.7973 35.6177 96.184L37.4977 95.488C37.7377 96 38.071 96.4213 38.4977 96.752C38.9297 97.0773 39.415 97.24 39.9537 97.24C40.5244 97.24 40.9777 97.12 41.3137 96.88C41.655 96.64 41.8257 96.2907 41.8257 95.832C41.8257 95.5173 41.7244 95.256 41.5217 95.048C41.3244 94.8347 41.055 94.6533 40.7137 94.504C40.3777 94.3493 39.9964 94.2 39.5697 94.056C39.159 93.9173 38.7457 93.7627 38.3297 93.592C37.9137 93.4213 37.5324 93.2133 37.1857 92.968C36.839 92.7173 36.559 92.4027 36.3457 92.024C36.1377 91.6453 36.0337 91.1813 36.0337 90.632C36.0337 90.0827 36.1804 89.5787 36.4737 89.12C36.767 88.6613 37.191 88.296 37.7457 88.024C38.3057 87.7467 38.983 87.608 39.7777 87.608C40.4284 87.608 41.0044 87.72 41.5057 87.944C42.0124 88.1627 42.431 88.4613 42.7617 88.84C43.0924 89.2187 43.3217 89.648 43.4497 90.128L41.5937 90.744C41.4444 90.408 41.215 90.128 40.9057 89.904C40.6017 89.6747 40.1884 89.56 39.6657 89.56C39.175 89.56 38.7937 89.656 38.5217 89.848C38.2497 90.04 38.1137 90.312 38.1137 90.664C38.1137 90.904 38.2044 91.1093 38.3857 91.28C38.5724 91.4453 38.8204 91.5947 39.1297 91.728C39.4444 91.8613 39.799 91.9973 40.1937 92.136C40.6364 92.2853 41.0764 92.456 41.5137 92.648C41.9564 92.8347 42.3564 93.064 42.7137 93.336C43.0764 93.608 43.367 93.9467 43.5857 94.352C43.8044 94.752 43.9137 95.2427 43.9137 95.824C43.9137 96.5387 43.735 97.1467 43.3777 97.648C43.0257 98.1493 42.5484 98.5333 41.9457 98.8C41.343 99.0613 40.663 99.192 39.9057 99.192ZM48.2057 99V89.792H45.0297V87.8H53.4697V89.792H50.2777V99H48.2057ZM54.4902 95.224V93.312H58.6342V95.224H54.4902ZM60.1128 99L64.3768 87.8H66.3448L70.6248 99H68.3928L67.5048 96.632H63.2248L62.3528 99H60.1128ZM63.8968 94.736H66.8168L65.6968 91.736C65.6595 91.6453 65.6195 91.544 65.5768 91.432C65.5341 91.32 65.4941 91.208 65.4568 91.096C65.4195 90.9787 65.3875 90.8773 65.3608 90.792C65.3341 90.8773 65.3021 90.9787 65.2648 91.096C65.2275 91.208 65.1875 91.32 65.1448 91.432C65.1021 91.544 65.0621 91.6453 65.0248 91.736L63.8968 94.736ZM72.2733 99V87.8H77.0013C77.9453 87.8 78.6946 87.9733 79.2493 88.32C79.804 88.6613 80.2013 89.1013 80.4413 89.64C80.6813 90.1733 80.8013 90.7307 80.8013 91.312C80.8013 91.7173 80.7293 92.128 80.5853 92.544C80.4466 92.9547 80.2253 93.3333 79.9213 93.68C79.6226 94.0213 79.2306 94.2987 78.7453 94.512C78.2653 94.72 77.684 94.824 77.0013 94.824H74.3453V99H72.2733ZM74.3453 92.872H77.0973C77.4813 92.872 77.788 92.7947 78.0173 92.64C78.252 92.48 78.42 92.28 78.5213 92.04C78.6226 91.8 78.6733 91.5573 78.6733 91.312C78.6733 91.088 78.6253 90.856 78.5293 90.616C78.4386 90.3707 78.2786 90.1653 78.0493 90C77.82 89.8347 77.5026 89.752 77.0973 89.752H74.3453V92.872ZM82.5233 99V87.8H84.5953V99H82.5233Z" fill="black"/>
</svg>
