<svg width="100" height="104" viewBox="0 0 100 104" fill="none" xmlns="http://www.w3.org/2000/svg">
<path d="M56.7325 73.7537C54.8161 76.1659 50.9297 74.8459 50.8828 71.7636L50.2061 26.702H80.5062C85.9941 26.702 89.0562 33.0407 85.6456 37.3358L56.7325 73.7537Z" fill="url(#paint0_linear_311_756)"/>
<path d="M56.7325 73.7537C54.8161 76.1659 50.9297 74.8459 50.8828 71.7636L50.2061 26.702H80.5062C85.9941 26.702 89.0562 33.0407 85.6456 37.3358L56.7325 73.7537Z" fill="url(#paint1_linear_311_756)" fill-opacity="0.2"/>
<path d="M44.4095 1.24626C46.3259 -1.16596 50.2122 0.154063 50.2591 3.23635L50.554 48.298H20.6357C15.1479 48.298 12.0857 41.9592 15.4963 37.6641L44.4095 1.24626Z" fill="black"/>
<path d="M18.7963 99.192C18.0976 99.192 17.463 99.0693 16.8923 98.824C16.3216 98.5787 15.831 98.232 15.4203 97.784C15.015 97.3307 14.711 96.7973 14.5083 96.184L16.3883 95.488C16.6283 96 16.9616 96.4213 17.3883 96.752C17.8203 97.0773 18.3056 97.24 18.8443 97.24C19.415 97.24 19.8683 97.12 20.2043 96.88C20.5456 96.64 20.7163 96.2907 20.7163 95.832C20.7163 95.5173 20.615 95.256 20.4123 95.048C20.215 94.8347 19.9456 94.6533 19.6043 94.504C19.2683 94.3493 18.887 94.2 18.4603 94.056C18.0496 93.9173 17.6363 93.7627 17.2203 93.592C16.8043 93.4213 16.423 93.2133 16.0763 92.968C15.7296 92.7173 15.4496 92.4027 15.2363 92.024C15.0283 91.6453 14.9243 91.1813 14.9243 90.632C14.9243 90.0827 15.071 89.5787 15.3643 89.12C15.6576 88.6613 16.0816 88.296 16.6363 88.024C17.1963 87.7467 17.8736 87.608 18.6683 87.608C19.319 87.608 19.895 87.72 20.3963 87.944C20.903 88.1627 21.3216 88.4613 21.6523 88.84C21.983 89.2187 22.2123 89.648 22.3403 90.128L20.4843 90.744C20.335 90.408 20.1056 90.128 19.7963 89.904C19.4923 89.6747 19.079 89.56 18.5563 89.56C18.0656 89.56 17.6843 89.656 17.4123 89.848C17.1403 90.04 17.0043 90.312 17.0043 90.664C17.0043 90.904 17.095 91.1093 17.2763 91.28C17.463 91.4453 17.711 91.5947 18.0203 91.728C18.335 91.8613 18.6896 91.9973 19.0843 92.136C19.527 92.2853 19.967 92.456 20.4043 92.648C20.847 92.8347 21.247 93.064 21.6043 93.336C21.967 93.608 22.2576 93.9467 22.4763 94.352C22.695 94.752 22.8043 95.2427 22.8043 95.824C22.8043 96.5387 22.6256 97.1467 22.2683 97.648C21.9163 98.1493 21.439 98.5333 20.8363 98.8C20.2336 99.0613 19.5536 99.192 18.7963 99.192ZM27.6728 99.192C26.7608 99.192 26.0541 98.9093 25.5528 98.344C25.0515 97.7733 24.8008 96.968 24.8008 95.928V90.824H26.8008V95.304C26.8008 95.992 26.9181 96.4933 27.1528 96.808C27.3875 97.1227 27.7581 97.28 28.2648 97.28C28.8088 97.28 29.2088 97.1227 29.4648 96.808C29.7261 96.488 29.8568 95.9973 29.8568 95.336V90.824H31.8488V99H29.8568V98.232C29.6061 98.552 29.2968 98.792 28.9288 98.952C28.5661 99.112 28.1475 99.192 27.6728 99.192ZM34.3652 102.248V90.824H36.3652V91.424C36.8132 90.896 37.4132 90.632 38.1652 90.632C38.8639 90.632 39.4665 90.8053 39.9732 91.152C40.4799 91.4933 40.8692 91.984 41.1412 92.624C41.4132 93.264 41.5492 94.0267 41.5492 94.912C41.5492 95.7707 41.4079 96.5227 41.1252 97.168C40.8425 97.808 40.4452 98.3067 39.9332 98.664C39.4212 99.016 38.8239 99.192 38.1412 99.192C37.7679 99.192 37.4319 99.1253 37.1332 98.992C36.8345 98.8533 36.5785 98.6507 36.3652 98.384V101.344L34.3652 102.248ZM37.8452 97.28C38.3892 97.28 38.8079 97.0747 39.1012 96.664C39.3945 96.248 39.5412 95.664 39.5412 94.912C39.5412 94.16 39.3919 93.576 39.0932 93.16C38.7945 92.744 38.3785 92.536 37.8452 92.536C37.5199 92.536 37.2345 92.5947 36.9892 92.712C36.7492 92.8293 36.5412 93.008 36.3652 93.248V96.552C36.5092 96.7813 36.7119 96.96 36.9732 97.088C37.2399 97.216 37.5305 97.28 37.8452 97.28ZM46.0937 99.192C45.203 99.192 44.4964 98.952 43.9737 98.472C43.4564 97.9867 43.1977 97.3307 43.1977 96.504C43.1977 95.9707 43.331 95.504 43.5977 95.104C43.8697 94.6987 44.2457 94.3867 44.7257 94.168C45.211 93.944 45.7764 93.832 46.4217 93.832C46.779 93.832 47.123 93.8667 47.4537 93.936C47.7897 94 48.083 94.0933 48.3337 94.216V93.704C48.3337 93.2453 48.203 92.9013 47.9417 92.672C47.6857 92.4373 47.307 92.32 46.8057 92.32C46.4057 92.32 45.995 92.392 45.5737 92.536C45.1524 92.68 44.7257 92.8933 44.2937 93.176L43.6937 91.6C44.163 91.2907 44.6857 91.0533 45.2617 90.888C45.8377 90.7173 46.419 90.632 47.0057 90.632C48.1044 90.632 48.9257 90.8933 49.4697 91.416C50.0137 91.9333 50.2857 92.7067 50.2857 93.736V99H48.3337V98.344C48.0564 98.6213 47.7257 98.832 47.3417 98.976C46.963 99.12 46.547 99.192 46.0937 99.192ZM46.5577 97.504C46.8884 97.504 47.2057 97.44 47.5097 97.312C47.819 97.1787 48.0937 96.992 48.3337 96.752V95.784C48.1044 95.672 47.8484 95.5867 47.5657 95.528C47.2884 95.464 47.011 95.432 46.7337 95.432C46.2377 95.432 45.8457 95.528 45.5577 95.72C45.275 95.9067 45.1337 96.168 45.1337 96.504C45.1337 96.8187 45.259 97.064 45.5097 97.24C45.7604 97.416 46.1097 97.504 46.5577 97.504ZM56.2959 99.192C55.9226 99.192 55.5999 99.1253 55.3279 98.992C55.0613 98.8587 54.8133 98.6427 54.5839 98.344V99H52.5839V88.352L54.5839 87.448V91.464C54.7919 91.1973 55.0479 90.992 55.3519 90.848C55.6613 90.704 55.9973 90.632 56.3599 90.632C57.0373 90.632 57.6293 90.8107 58.1359 91.168C58.6426 91.5253 59.0373 92.0267 59.3199 92.672C59.6079 93.312 59.7519 94.056 59.7519 94.904C59.7519 96.2533 59.4453 97.3067 58.8319 98.064C58.2239 98.816 57.3786 99.192 56.2959 99.192ZM56.0559 97.28C56.5999 97.28 57.0159 97.0747 57.3039 96.664C57.5973 96.2533 57.7439 95.6667 57.7439 94.904C57.7439 94.1413 57.5973 93.5573 57.3039 93.152C57.0159 92.7413 56.5999 92.536 56.0559 92.536C55.7573 92.536 55.4746 92.6027 55.2079 92.736C54.9413 92.864 54.7333 93.0373 54.5839 93.256V96.56C54.7493 96.7947 54.9519 96.9733 55.1919 97.096C55.4319 97.2187 55.7199 97.28 56.0559 97.28ZM64.2968 99.192C63.4061 99.192 62.6995 98.952 62.1768 98.472C61.6595 97.9867 61.4008 97.3307 61.4008 96.504C61.4008 95.9707 61.5341 95.504 61.8008 95.104C62.0728 94.6987 62.4488 94.3867 62.9288 94.168C63.4141 93.944 63.9795 93.832 64.6248 93.832C64.9821 93.832 65.3261 93.8667 65.6568 93.936C65.9928 94 66.2861 94.0933 66.5368 94.216V93.704C66.5368 93.2453 66.4061 92.9013 66.1448 92.672C65.8888 92.4373 65.5101 92.32 65.0088 92.32C64.6088 92.32 64.1981 92.392 63.7768 92.536C63.3555 92.68 62.9288 92.8933 62.4968 93.176L61.8968 91.6C62.3661 91.2907 62.8888 91.0533 63.4648 90.888C64.0408 90.7173 64.6221 90.632 65.2088 90.632C66.3075 90.632 67.1288 90.8933 67.6728 91.416C68.2168 91.9333 68.4888 92.7067 68.4888 93.736V99H66.5368V98.344C66.2595 98.6213 65.9288 98.832 65.5448 98.976C65.1661 99.12 64.7501 99.192 64.2968 99.192ZM64.7608 97.504C65.0915 97.504 65.4088 97.44 65.7128 97.312C66.0221 97.1787 66.2968 96.992 66.5368 96.752V95.784C66.3075 95.672 66.0515 95.5867 65.7688 95.528C65.4915 95.464 65.2141 95.432 64.9368 95.432C64.4408 95.432 64.0488 95.528 63.7608 95.72C63.4781 95.9067 63.3368 96.168 63.3368 96.504C63.3368 96.8187 63.4621 97.064 63.7128 97.24C63.9635 97.416 64.3128 97.504 64.7608 97.504ZM73.4591 99.192C72.8191 99.192 72.2057 99.056 71.6191 98.784C71.0377 98.512 70.5764 98.1467 70.2351 97.688L71.5471 96.584C71.8191 96.872 72.1337 97.1013 72.4911 97.272C72.8484 97.4373 73.1897 97.52 73.5151 97.52C73.9204 97.52 74.2324 97.4533 74.4511 97.32C74.6697 97.1813 74.7791 96.9893 74.7791 96.744C74.7791 96.584 74.7257 96.4427 74.6191 96.32C74.5177 96.192 74.3364 96.064 74.0751 95.936C73.8137 95.8027 73.4457 95.6507 72.9711 95.48C72.0537 95.144 71.4031 94.7813 71.0191 94.392C70.6351 93.9973 70.4431 93.4987 70.4431 92.896C70.4431 92.224 70.7151 91.68 71.2591 91.264C71.8031 90.8427 72.5124 90.632 73.3871 90.632C73.9844 90.632 74.5337 90.744 75.0351 90.968C75.5417 91.192 75.9764 91.52 76.3391 91.952L75.0351 93.032C74.5551 92.5467 73.9951 92.304 73.3551 92.304C73.0297 92.304 72.7684 92.3653 72.5711 92.488C72.3737 92.6053 72.2751 92.7653 72.2751 92.968C72.2751 93.1653 72.3897 93.3413 72.6191 93.496C72.8537 93.6507 73.2884 93.832 73.9231 94.04C74.5524 94.2373 75.0617 94.4613 75.4511 94.712C75.8457 94.9627 76.1337 95.2533 76.3151 95.584C76.5017 95.9147 76.5951 96.296 76.5951 96.728C76.5951 97.496 76.3151 98.0987 75.7551 98.536C75.2004 98.9733 74.4351 99.192 73.4591 99.192ZM81.8894 99.192C81.1054 99.192 80.4281 99.016 79.8574 98.664C79.2921 98.312 78.8548 97.816 78.5454 97.176C78.2414 96.5307 78.0894 95.7733 78.0894 94.904C78.0894 94.024 78.2441 93.264 78.5534 92.624C78.8681 91.984 79.3081 91.4933 79.8734 91.152C80.4441 90.8053 81.1161 90.632 81.8894 90.632C82.5508 90.632 83.1508 90.7707 83.6894 91.048C84.2281 91.3253 84.6574 91.752 84.9774 92.328C85.2974 92.8987 85.4574 93.6267 85.4574 94.512C85.4574 94.6507 85.4521 94.8213 85.4414 95.024C85.4361 95.2213 85.4228 95.4213 85.4014 95.624H80.0654C80.0868 95.9973 80.1721 96.3253 80.3214 96.608C80.4761 96.8853 80.6868 97.1013 80.9534 97.256C81.2201 97.4107 81.5348 97.488 81.8974 97.488C82.2868 97.488 82.6254 97.424 82.9134 97.296C83.2014 97.1627 83.4734 96.952 83.7294 96.664L84.8814 97.856C84.5294 98.256 84.1054 98.5787 83.6094 98.824C83.1134 99.0693 82.5401 99.192 81.8894 99.192ZM80.0734 94.064H83.5214C83.4948 93.7067 83.4148 93.4 83.2814 93.144C83.1481 92.8827 82.9614 92.6827 82.7214 92.544C82.4814 92.4053 82.1908 92.336 81.8494 92.336C81.3801 92.336 80.9801 92.48 80.6494 92.768C80.3188 93.056 80.1268 93.488 80.0734 94.064Z" fill="black"/>
<defs>
<linearGradient id="paint0_linear_311_756" x1="47.7804" y1="42.502" x2="74.7102" y2="53.7926" gradientUnits="userSpaceOnUse">
<stop stop-color="#3C3C3C"/>
<stop offset="1"/>
</linearGradient>
<linearGradient id="paint1_linear_311_756" x1="49.0669" y1="14.6141" x2="61.3492" y2="37.7312" gradientUnits="userSpaceOnUse">
<stop/>
<stop offset="1" stop-opacity="0"/>
</linearGradient>
</defs>
</svg>
